# xmcd
#
# Track frame offsets: 
#        150
#        13485
#        36035
#        55414
#        79137
#        105267
#        121310
#        141757
#        159310
#        174482
#        195855
#        210897
#        236362
#        263485
#
# Disc length: 3878 seconds
#
# Revision: 2
# Processed by: cddbd v1.5.2PL0 Copyright (c) Steve Scherf et al.
# Submitted via: ExactAudioCopy v0.95b3
#
DISCID=a70f240e
DTITLE=Brian Fraser - Don't Ask Me 
DYEAR=1999
DGENRE=Blues
TTITLE0=Tetris Blues
TTITLE1=Dont Ask Me
TTITLE2=The River Ran Red
TTITLE3=Atlanta Moon
TTITLE4=Minnie The Moocher
TTITLE5=Four Wheel Flying
TTITLE6=Slipping Away
TTITLE7=In My Day
TTITLE8=Bad Habits
TTITLE9=In The Pines
TTITLE10=Only Want To Be With You
TTITLE11=Bluestone Bar
TTITLE12=Another Train Song
TTITLE13=Jersey Girl
EXTD=YEAR: 1999 ID3G:   0
EXTT0=
EXTT1=
EXTT2=
EXTT3=
EXTT4=
EXTT5=
EXTT6=
EXTT7=
EXTT8=
EXTT9=
EXTT10=
EXTT11=
EXTT12=
EXTT13=
PLAYORDER=
